<?xml version="1.0" encoding="UTF-8" standalone="no"?>
<svg width="723px" height="225px" viewBox="0 0 723 225" version="1.1" xmlns="http://www.w3.org/2000/svg" xmlns:xlink="http://www.w3.org/1999/xlink">
    <!-- Generator: Sketch 39.1 (31720) - http://www.bohemiancoding.com/sketch -->
    <title>Group 6</title>
    <desc>Created with Sketch.</desc>
    <defs>
        <polygon id="path-1" points="185.880005 32.6193312 465.545937 32.6193312 465.545937 12.0674312 185.880005 12.0674312"></polygon>
    </defs>
    <g id="iOS-Page" stroke="none" stroke-width="1" fill="none" fill-rule="evenodd">
        <g id="Group-6">
            <g id="Porter_logo_Artwork_White--Copy-2" fill="#000000">
                <g id="Group-9">
                    <path d="M624.247178,73.7632137 L624.247178,5.53318148 C624.247178,5.19597747 624.598486,4.85943334 625.657242,4.85943334 L639.752361,4.85943334 C656.848439,4.85943334 671.294176,11.6041736 671.294176,39.0582555 C671.294176,65.5079843 664.245236,73.7632137 644.510551,73.7632137 L624.247178,73.7632137 L624.247178,73.7632137 Z M722.217987,146.203347 C719.395098,149.405135 714.819119,152.099468 709.532242,152.099468 C701.422475,152.099468 697.371043,145.024783 697.371043,134.748309 L697.371043,116.048333 C697.371043,89.2614007 682.393858,74.0984381 648.738672,74.0984381 C673.584236,74.0984381 692.788162,57.5774209 692.788162,39.1849545 C692.788162,14.6845421 663.321758,3.84848118 643.482854,3.84848118 L583.720432,3.84848118 C583.367744,3.84848118 583.367744,4.85943334 583.720432,4.85943334 L601.517056,4.85943334 C602.397052,4.85943334 602.92712,5.19597747 602.92712,5.53318148 L602.92712,148.899659 C602.92712,149.572748 602.397052,149.74168 601.517056,149.74168 L583.720432,149.74168 C583.367744,149.74168 583.367744,150.5837 583.720432,150.5837 L648.738672,150.5837 C649.092051,150.5837 649.092051,149.74168 648.738672,149.74168 L625.657242,149.74168 C624.598486,149.74168 624.247178,149.572748 624.247178,148.899659 L624.247178,74.773506 L644.510551,74.773506 C662.836552,74.773506 674.464232,79.6593348 674.464232,104.087159 L674.464232,117.564102 C674.464232,142.498062 687.328047,153.95244 703.893366,153.95244 C712.527679,153.95244 718.518553,151.258108 722.569985,146.878415 C722.921984,146.540551 722.390535,146.035075 722.217987,146.203347 L722.217987,146.203347 Z" id="Fill-1"></path>
                    <path d="M42.8618231,4.85943334 L55.5482585,4.85943334 C77.9263823,4.85943334 91.3181948,15.4724513 91.3181948,50.5139536 C91.3181948,81.1751032 78.2790708,92.4625292 54.6675723,92.4625292 C50.4387606,92.4625292 43.7425092,91.7887811 40.3950737,90.608897 L38.8090105,91.6191892 C42.5091345,92.4625292 50.2627614,93.4734814 54.6675723,93.4734814 C86.5606952,93.4734814 113.519629,76.1210023 113.519629,47.3128251 C113.519629,20.5265522 87.4413814,3.84848118 56.7823233,3.84848118 L42.8618231,3.84848118 L42.8618231,4.85943334" id="Fill-3"></path>
                    <path d="M40.7477623,5.53318148 C40.7477623,5.19597747 41.2757598,4.85943334 41.981137,4.85943334 L42.8618231,4.85943334 L42.8618231,3.84848118 L0.397015811,3.84848118 C-0.131671937,3.84848118 -0.131671937,4.85943334 0.397015811,4.85943334 L18.0176401,4.85943334 C18.7216368,4.85943334 19.2510148,5.19597747 19.2510148,5.53318148 L19.2510148,148.899659 C19.2510148,149.572748 18.7216368,149.74168 18.0176401,149.74168 L0.397015811,149.74168 C-0.131671937,149.74168 -0.131671937,150.5837 0.397015811,150.5837 L59.6010711,150.5837 C60.1297588,150.5837 60.1297588,149.74168 59.6010711,149.74168 L41.981137,149.74168 C41.2757598,149.74168 40.7477623,149.572748 40.7477623,148.899659 L40.7477623,5.53318148" id="Fill-4"></path>
                    <path d="M208.845619,145.361987 C201.974059,151.42638 190.344309,153.11174 183.12006,153.11174 C176.07181,153.11174 164.44275,151.42638 157.57119,145.361987 C146.469437,135.253125 140.655253,119.248802 140.655253,77.3002265 C140.655253,40.7429559 146.469437,19.5156001 157.57119,9.23912621 C164.44275,3.17407315 173.957749,1.32110078 183.12006,1.32110078 C192.45906,1.32110078 201.974059,3.17407315 208.845619,9.23912621 C219.770682,19.5156001 225.761557,40.7429559 225.761557,77.3002265 C225.761557,119.248802 219.770682,135.253125 208.845619,145.361987 L208.845619,145.361987 Z M183.12006,0.479080579 C145.060064,0.479080579 117.748441,36.194331 117.748441,77.3002265 C117.748441,119.754278 146.998125,153.95244 183.12006,153.95244 C219.241995,153.95244 248.491679,119.754278 248.491679,77.3002265 C248.491679,34.8468347 219.241995,0.479080579 183.12006,0.479080579 L183.12006,0.479080579 Z" id="Fill-5"></path>
                    <path d="M479.58344,47.6500291 C479.58344,47.9872331 480.288127,47.9872331 480.288127,47.6500291 L480.288127,4.69116128 C480.288127,4.52222932 480.288127,3.84848118 479.936819,3.84848118 L361.614292,3.84848118 C361.262294,3.84848118 361.086295,4.52222932 361.086295,4.69116128 L361.086295,47.6500291 C361.086295,47.9872331 361.790982,47.9872331 361.790982,47.6500291 C361.790982,23.5594087 372.186667,4.85943334 401.261042,4.85943334 L408.264429,4.85943334 C409.145805,4.85943334 409.497804,5.19597747 409.497804,5.53318148 L409.497804,148.899659 C409.497804,149.572748 409.145805,149.74168 408.264429,149.74168 L390.644495,149.74168 C390.292497,149.74168 390.292497,150.5837 390.644495,150.5837 L450.02524,150.5837 C450.377928,150.5837 450.377928,149.74168 450.02524,149.74168 L432.228616,149.74168 C431.523929,149.74168 431.17055,149.572748 431.17055,148.899659 L431.17055,5.53318148 C431.17055,5.19597747 431.523929,4.85943334 432.228616,4.85943334 L439.232694,4.85943334 C468.306378,4.85943334 479.58344,23.5594087 479.58344,47.6500291" id="Fill-6"></path>
                    <path d="M572.986553,24.0648848 C571.2238,57.7582309 538.436187,75.4465943 498.26213,76.7947504 C510.067189,44.1123565 528.78384,2.66859707 553.590062,1.32110078 C569.097316,0.479080579 573.691239,9.74460229 572.986553,24.0648848 L572.986553,24.0648848 Z M555.174745,0.479080579 C523.457621,0.479080579 481.522192,37.3735552 471.477815,87.0718842 C464.606254,123.966359 477.997377,153.95244 506.191066,153.95244 C536.673434,153.95244 557.641494,121.438978 562.751682,110.994233 C562.751682,110.994233 562.854521,110.701901 562.548075,110.591699 C562.178822,110.459061 561.997992,110.82596 561.997992,110.82596 C556.916101,120.847717 535.616749,152.604284 506.894372,152.604284 C490.684502,151.42638 488.569751,135.758601 489.627817,118.575714 C490.684502,98.6958543 498.085441,77.4684986 498.085441,77.4684986 C537.554811,76.2899342 590.092293,57.2527548 591.679046,27.9391016 C592.559733,12.1030507 577.20018,0.479080579 555.174745,0.479080579 L555.174745,0.479080579 Z" id="Fill-7"></path>
                    <path d="M284.084926,73.7632137 L284.084926,5.53318148 C284.084926,5.19597747 284.436924,4.85943334 285.49499,4.85943334 L299.590799,4.85943334 C316.686186,4.85943334 331.131923,11.6041736 331.131923,39.0582555 C331.131923,65.5079843 324.082984,73.7632137 304.348299,73.7632137 L284.084926,73.7632137 L284.084926,73.7632137 Z M382.054354,146.203347 C379.234916,149.405135 374.654106,152.099468 369.367919,152.099468 C361.262294,152.099468 357.209481,145.024783 357.209481,134.748309 L357.209481,116.048333 C357.209481,89.2614007 342.232296,74.0984381 308.57711,74.0984381 C333.421983,74.0984381 352.628671,57.5774209 352.628671,39.1849545 C352.628671,14.6845421 323.159506,3.84848118 303.320601,3.84848118 L243.55818,3.84848118 C243.206182,3.84848118 243.206182,4.85943334 243.55818,4.85943334 L261.354803,4.85943334 C262.23549,4.85943334 262.764868,5.19597747 262.764868,5.53318148 L262.764868,148.899659 C262.764868,149.572748 262.23549,149.74168 261.354803,149.74168 L243.55818,149.74168 C243.206182,149.74168 243.206182,150.5837 243.55818,150.5837 L308.57711,150.5837 C308.929799,150.5837 308.929799,149.74168 308.57711,149.74168 L285.49499,149.74168 C284.436924,149.74168 284.084926,149.572748 284.084926,148.899659 L284.084926,74.773506 L304.348299,74.773506 C322.6743,74.773506 334.30267,79.6593348 334.30267,104.087159 L334.30267,117.564102 C334.30267,142.498062 347.166485,153.95244 363.729733,153.95244 C372.363356,153.95244 378.35423,151.258108 382.406353,146.878415 C382.759041,146.540551 382.230354,146.035075 382.054354,146.203347 L382.054354,146.203347 Z" id="Fill-8"></path>
                </g>
            </g>
            <g id="PORTER-Powered-By-Logo-Mobile-Copy-2" transform="translate(128.000000, 181.000000)">
                <path d="M138.368253,39.8586121 C137.921788,39.6303887 137.49672,39.516277 137.093048,39.516277 C136.804915,39.516277 136.553868,39.6273857 136.337054,39.8466003 C136.120241,40.0673164 136.013261,40.3285721 136.013261,40.631869 C136.013261,41.1018291 136.329922,41.5687862 136.963245,42.0312389 C137.597995,42.4936916 138.779057,42.7249179 140.509284,42.7249179 C141.791621,42.7249179 143.300755,42.3270284 145.038115,41.5312494 C146.774047,40.733969 148.448645,39.4712329 150.063333,37.7415397 C152.441148,35.1935454 154.537961,32.2581719 156.353772,28.9369207 C157.549098,26.7522822 158.71019,23.6577529 159.834196,19.653333 C160.655804,16.7554963 161.066608,14.9432222 161.066608,14.2150094 C161.066608,13.7300346 160.975319,13.3801921 160.795592,13.1684849 C160.615865,12.9552762 160.337716,12.8501733 159.963999,12.8501733 C159.588855,12.8501733 159.336381,12.9552762 159.206579,13.1684849 C158.932709,13.5468553 158.795774,14.108405 158.795774,14.8516325 C158.795774,14.9282075 158.810038,15.1474221 158.839993,15.5122793 C158.854257,15.7855468 158.861389,16.1113657 158.861389,16.4897361 C158.861389,17.5347591 158.788642,18.5002042 158.644576,19.3800655 C158.399234,20.8515059 158.06403,22.2854095 157.640388,23.680275 C157.213893,25.0766419 156.74318,26.2748148 156.223969,27.2747937 C155.560692,28.6096003 154.767611,30.0059672 153.846155,31.462393 C153.759144,31.6125399 153.680692,31.7266516 153.607946,31.8032266 C153.636474,31.5149444 153.773408,30.7552007 154.01875,29.5254969 C154.205609,28.6591488 154.382483,27.3153334 154.547945,25.492549 C154.714835,23.6697647 154.797566,22.1442714 154.797566,20.9130661 C154.797566,18.1954058 154.45095,16.0468025 153.759144,14.4672563 C153.255624,13.3276407 152.585214,12.7585836 151.749342,12.7585836 C151.619539,12.7585836 151.439813,12.7735983 151.208735,12.8036277 C150.748007,13.0318511 150.415655,13.2585731 150.214532,13.4867965 C149.883607,13.8666684 149.494198,14.5408283 149.047734,15.5122793 C148.830921,15.997254 148.470041,17.2329637 147.966521,19.2209097 C148.183334,19.3875728 148.363061,19.4716551 148.507127,19.4716551 L148.679722,19.4251096 C149.168979,17.6053282 149.666793,16.3696185 150.17174,15.7164792 C150.415655,15.4131823 150.703788,15.2615338 151.03614,15.2615338 C151.237263,15.2615338 151.404152,15.3215926 151.532529,15.4432116 C151.77787,15.6714351 151.97614,16.0513069 152.127339,16.5828272 C152.278538,17.1143475 152.389797,18.0993117 152.462544,19.5437257 C152.53529,21.6547922 152.57095,23.105212 152.57095,23.8949852 C152.57095,25.246308 152.458265,26.8573851 152.235746,28.7342223 C152.0118,30.6110596 151.666611,32.1620779 151.19875,33.3932831 C150.729464,34.6229869 150.17174,35.6319746 149.522727,36.4217477 C148.31171,37.8781734 147.246187,38.9307037 146.323304,39.5853446 C145.834048,40.0703193 145.073775,40.5372764 144.042485,40.9847144 C143.012622,41.4321524 142.115414,41.6558714 141.352288,41.6558714 C140.818814,41.6558714 140.440817,41.6063229 140.216871,41.5072259 C139.994352,41.4096304 139.730468,41.1844099 139.42807,40.8360689 C138.938814,40.3060501 138.585066,39.9802311 138.368253,39.8586121 L138.368253,39.8586121 Z M132.888011,30.6440919 C132.618421,30.3272818 132.482913,29.9368996 132.482913,29.471444 C132.482913,29.0330148 132.668345,28.1591594 133.036357,26.8498777 C133.405796,25.5405961 133.876509,24.3784584 134.451349,23.3649663 C135.027616,22.3514742 136.292836,20.6007604 138.251288,18.1203323 C139.486553,16.546792 140.557782,15.4717396 141.464974,14.8966766 C141.934261,14.6083944 142.366461,14.4657548 142.764428,14.4657548 C143.175232,14.4657548 143.511863,14.5978842 143.775748,14.8636443 C144.036779,15.1294045 144.169435,15.473241 144.169435,15.898157 C144.169435,16.8080477 143.94121,17.8710883 143.487614,19.0842759 C142.891378,20.7223795 142.125399,22.3679904 141.188252,24.0211086 C140.734656,24.8108817 139.894504,25.9640105 138.666371,27.480495 C137.439664,28.9969795 136.335628,30.0510113 135.357115,30.6425904 C134.860727,30.960902 134.384308,31.1215593 133.930712,31.1215593 C133.505644,31.1215593 133.157601,30.9624035 132.888011,30.6440919 L132.888011,30.6440919 Z M137.813382,3.49601644 C137.813382,3.84285597 137.727798,4.26026457 137.553776,4.74373785 C137.115871,5.95692545 136.646584,7.41184969 136.150196,9.11001203 L131.9366,22.5466653 L130.795478,26.7763057 C130.487374,27.8828889 130.334749,28.8528384 130.334749,29.6876557 C130.334749,30.3392935 130.572959,30.9008432 131.050804,31.3708033 C131.528649,31.8407633 132.187647,32.0764941 133.029225,32.0764941 C133.769528,32.0764941 134.746615,31.7807046 135.959057,31.1891255 C138.081546,30.142601 139.693381,29.0480295 140.790285,27.9129183 C142.487705,26.1531957 143.817113,24.2072909 144.778509,22.0767052 C145.741331,19.9446181 146.222029,17.8936104 146.222029,15.920679 C146.222029,14.980759 145.953865,14.1624579 145.414685,13.4642745 C144.989617,12.9327541 144.514625,12.666994 143.991135,12.666994 C143.537538,12.666994 143.012622,12.8006248 142.417812,13.066385 C141.823001,13.3306436 141.142607,13.8276301 140.376629,14.555843 C140.065673,14.8591399 139.010134,16.1338878 137.210013,18.3785851 L134.128982,22.7253402 L136.519634,14.6249106 C137.104459,12.788613 137.469619,11.5829328 137.616538,11.0063684 L139.239785,5.65963443 C140.088495,2.95999173 140.534959,1.49605867 140.577751,1.26783526 C138.98018,1.37443962 138.057297,1.42699106 137.810529,1.42699106 C136.619482,1.45852192 135.820696,1.52608807 135.414171,1.63269242 L135.371379,2.29183766 L135.719422,2.29183766 C136.476842,2.29183766 137.051682,2.42847142 137.44537,2.70023745 C137.690711,3.00353435 137.813382,3.26779303 137.813382,3.49601644 L137.813382,3.49601644 Z M106.538063,29.4369102 C106.238518,29.0735545 106.088746,28.5720636 106.088746,27.9354404 C106.088746,27.2838025 106.318397,26.3498883 106.777699,25.1367007 C107.237001,23.9235131 107.941644,22.4745947 108.888776,20.7884441 C109.835907,19.106798 110.539124,18.0002147 110.998426,17.4686944 C111.80577,16.5122581 112.574602,15.8380982 113.306347,15.4432116 C114.036665,15.0498266 114.66143,14.8516325 115.176361,14.8516325 C115.468774,14.8516325 115.788288,15.0723486 116.137757,15.5122793 C116.484373,15.9522099 116.659821,16.4146626 116.659821,16.8996374 C116.659821,17.217949 116.418759,18.2269367 115.938061,19.9266005 C115.457363,21.6247628 114.622917,23.3274296 113.43187,25.0346007 C112.240823,26.7402704 110.969898,28.1081094 109.619094,29.1411206 C108.881644,29.7026703 108.234056,29.9834452 107.676333,29.9834452 C107.217031,29.9834452 106.837608,29.8017674 106.538063,29.4369102 L106.538063,29.4369102 Z M116.253296,14.0783756 C115.789715,13.7750787 115.25624,13.6234303 114.652871,13.6234303 C113.881187,13.6234303 113.021066,13.8696713 112.073934,14.3621534 C111.126802,14.856137 110.131173,15.6594233 109.084193,16.7750154 C108.038639,17.889106 107.091507,19.1983876 106.242797,20.6998574 C105.392661,22.2013272 104.78644,23.4295295 104.42128,24.3859658 C103.803648,25.9489958 103.495545,27.4654803 103.495545,28.9369207 C103.495545,30.120079 103.718064,31.037477 104.164528,31.6891149 C104.442676,32.1125294 104.826379,32.3272396 105.314209,32.3272396 C106.205711,32.3272396 107.202767,31.932353 108.30395,31.1440814 C109.837334,30.0510113 111.293692,28.6636532 112.673024,26.9790041 C113.397636,26.1006443 113.948228,25.470027 114.324799,25.0916566 C114.13794,25.8348841 113.798456,27.033057 113.309199,28.6861753 C112.818517,30.3392935 112.573175,31.3933253 112.573175,31.8482707 C112.573175,31.954875 112.617394,32.0764941 112.702978,32.2131279 C112.905527,32.2731866 113.063858,32.3047175 113.179397,32.3047175 C113.711445,32.3047175 114.511657,31.8873089 115.578607,31.0509902 C117.062067,29.8843482 118.402886,28.352849 119.599638,26.4564926 C119.484099,26.2898295 119.311505,26.1531957 119.081854,26.0450899 C116.952233,28.5195121 115.628531,29.8017674 115.110747,29.8918555 L115.045132,29.7552218 L118.111899,20.0857563 C118.357241,19.327514 118.572628,18.5077115 118.760913,17.6278502 C118.889289,17.0347696 119.148895,16.1188731 119.538303,14.8741546 L121.697877,7.59352753 L123.490866,1.95100402 L123.512262,1.81437027 C123.555054,1.64770712 123.627801,1.33690287 123.727649,0.880456051 C123.5251,0.820397259 123.338241,0.790367863 123.165646,0.790367863 L122.906041,0.81288991 C122.098697,1.1612309 120.47117,1.33690287 118.02061,1.33690287 L117.848015,1.99604811 L118.301611,2.1311804 C119.224494,2.35790234 119.880639,2.6281669 120.268621,2.94497703 C120.456906,3.11164018 120.549623,3.29181655 120.549623,3.4885091 C120.549623,3.75877366 120.398424,4.39239392 120.096026,5.38636692 C120.067498,5.47795658 120.03897,5.59957564 120.010442,5.74972262 C119.822157,6.50946633 119.67809,7.05449987 119.576816,7.38932764 L117.24322,15.2390118 C116.892325,14.6609459 116.561399,14.2750681 116.253296,14.0783756 L116.253296,14.0783756 Z M96.0026481,18.5152189 C96.9811608,16.5888331 97.9183077,15.2164897 98.8126626,14.3966872 C99.344711,13.9267272 99.8068657,13.6909964 100.194847,13.6909964 C100.498671,13.6909964 100.771114,13.8351375 101.016456,14.1234197 C101.261797,14.4102004 101.384468,14.7765591 101.384468,15.2164897 C101.384468,15.8831423 101.268929,16.5317773 101.039278,17.1593916 C100.808201,17.7900089 100.468717,18.3981042 100.022253,18.982176 C99.5757884,19.5662477 99.1792483,19.9776504 98.8340587,20.22239 C97.9539678,20.8439985 97.2478982,21.2614071 96.7158497,21.4731144 C95.7344843,21.8680009 95.0141506,22.0571861 94.5534223,22.04067 C94.7844997,21.1623101 95.266624,19.9866593 96.0026481,18.5152189 L96.0026481,18.5152189 Z M97.5802501,22.3469698 C98.4589146,22.0661949 98.9995214,21.8725053 99.2006443,21.765901 L100.99506,20.5346957 C101.471478,20.1548239 101.913663,19.5572389 102.324468,18.7449437 C102.735272,17.9311471 102.940674,17.1068402 102.940674,16.2705215 C102.940674,15.3275985 102.673936,14.5453327 102.140462,13.9207213 C101.606987,13.2976113 100.987928,12.9868071 100.281858,12.9868071 C99.7341191,12.9868071 99.2049235,13.1039217 98.6928447,13.338151 C98.1821923,13.5738817 97.6729664,13.9192198 97.169446,14.3741652 C97.0396433,14.4957842 96.4348483,15.1624368 95.3536346,16.3771259 L93.6890219,18.9251201 C93.1555471,19.8650402 92.6734228,20.8665206 92.2412226,21.9280597 C91.9673531,22.6112285 91.7248646,23.4610604 91.5166097,24.476054 C91.3069284,25.492549 91.202801,26.364903 91.202801,27.0931158 C91.202801,28.777765 91.556549,30.0975569 92.2626186,31.0509902 C92.7960935,31.7807046 93.4436806,32.1440602 94.2082327,32.1440602 C95.3465026,32.1440602 96.4491123,31.6380649 97.5146356,30.6260743 C99.2149083,28.9924751 100.281858,27.3303481 100.714058,25.6366901 C100.498671,25.6051593 100.303254,25.591646 100.130659,25.591646 L99.8282618,25.591646 C99.5686564,26.3769147 99.2305988,27.08711 98.8126626,27.7207302 C98.3933,28.3558519 97.9939071,28.8678531 97.6130574,29.2612382 C97.2307813,29.6531218 96.7729059,29.992454 96.239431,30.2807362 C95.9940897,30.4158685 95.7130882,30.4834346 95.3964267,30.4834346 C94.8786423,30.4834346 94.4664117,30.2717274 94.1640142,29.8483129 C93.703286,29.2282059 93.4722086,28.403899 93.4722086,27.3753922 C93.4722086,25.9700164 93.710418,24.5781539 94.1868367,23.2028076 C95.5690215,22.9145254 96.7001593,22.6292461 97.5802501,22.3469698 L97.5802501,22.3469698 Z M83.0394949,15.2765485 L82.9096921,15.6128777 C82.8669001,15.7329953 82.7941535,16.0107672 82.6943053,16.444692 L81.1808913,21.3139586 C79.8115442,25.591646 78.8173411,28.5270195 78.198282,30.120079 C78.0527889,30.5149655 77.9814687,30.861805 77.9814687,31.1666034 C77.9814687,31.3933253 78.0642001,31.5795076 78.2282365,31.7236487 C78.3922729,31.8662883 78.6675687,31.9398604 79.054124,31.9398604 C79.4834714,31.9398604 79.7758841,31.8092325 79.9342149,31.5479767 C80.2366124,31.0329726 80.6302997,30.091551 81.1138504,28.7207091 C81.5974011,27.3498672 82.7984327,24.9039729 84.7183715,21.3830262 C86.6383104,17.8620795 87.9448958,15.7750365 88.6381278,15.1249001 C88.8977332,14.8666472 89.1430746,14.7375208 89.3727255,14.7375208 C89.6038029,14.7375208 89.8120577,14.9357149 90.000343,15.3290999 C90.0431351,16.2089612 90.1543945,16.7600007 90.3355478,16.9792153 C90.5152746,17.1999313 90.8290833,17.3095386 91.2755475,17.3095386 C91.8090224,17.3095386 92.2184001,17.1353681 92.50796,16.7840242 C92.9258962,16.2840347 93.134151,15.6864498 93.134151,14.9882663 C93.134151,14.3666578 92.9472922,13.8666684 92.5721481,13.4867965 C92.0672014,13.0018218 91.5280209,12.7585836 90.951754,12.7585836 C89.9275964,12.7585836 89.0346679,13.1489658 88.2701158,13.9312316 C87.2331206,15.028806 85.5399798,17.9191354 83.1906936,22.6037211 C82.5716346,23.8649558 82.1608304,24.6757495 81.9582811,25.0406066 L82.0452917,24.6307054 L83.1692976,21.8319657 C83.5401624,20.9370897 83.9623778,19.7148932 84.4345173,18.1683793 C84.9052304,16.620364 85.2204655,15.4342028 85.3802227,14.606893 C85.4372788,14.3516431 85.4658069,14.0963932 85.4658069,13.8411434 C85.4658069,13.5858935 85.3973395,13.3681804 85.2604048,13.1865025 C85.1234701,13.0063262 84.8752759,12.8636865 84.5158223,12.7585836 C83.9409817,12.8036277 83.4246237,12.9717924 82.9638955,13.2585731 C82.2449882,13.7000052 81.3962782,14.5183063 80.419192,15.7164792 C79.4421057,16.9131506 78.7731226,17.9236398 78.4136689,18.7434423 L79.2994654,18.6968967 C80.4962178,17.0137491 81.1509369,16.1038584 81.2664755,15.9672246 C81.6844117,15.4822499 82.1323023,15.0573339 82.6072946,14.6924767 C82.8954281,14.9327119 83.0394949,15.1264015 83.0394949,15.2765485 L83.0394949,15.2765485 Z M69.6726695,18.5152189 C70.6526085,16.5888331 71.5883291,15.2164897 72.482684,14.3966872 C73.0161588,13.9267272 73.4768871,13.6909964 73.8662952,13.6909964 C74.1686927,13.6909964 74.4425621,13.8351375 74.6879035,14.1234197 C74.9318185,14.4102004 75.0544891,14.7765591 75.0544891,15.2164897 C75.0544891,15.8831423 74.9389505,16.5317773 74.7092995,17.1593916 C74.4782222,17.7900089 74.1401646,18.3981042 73.6937004,18.982176 C73.2458098,19.5662477 72.850696,19.9776504 72.50408,20.22239 C71.6254156,20.8439985 70.919346,21.2614071 70.3858711,21.4731144 C69.4059321,21.8680009 68.6855984,22.0571861 68.2248701,22.04067 C68.454521,21.1623101 68.9380718,19.9866593 69.6726695,18.5152189 L69.6726695,18.5152189 Z M71.2502715,22.3469698 C72.128936,22.0661949 72.6695428,21.8725053 72.8720921,21.765901 L74.6665074,20.5346957 C75.1414997,20.1548239 75.5851112,19.5572389 75.9959153,18.7449437 C76.4052931,17.9311471 76.6106952,17.1068402 76.6106952,16.2705215 C76.6106952,15.3275985 76.3439577,14.5453327 75.8119093,13.9207213 C75.2784345,13.2976113 74.657949,12.9868071 73.9518794,12.9868071 C73.4041405,12.9868071 72.8749449,13.1039217 72.3642925,13.338151 C71.8522137,13.5738817 71.3444141,13.9192198 70.8394674,14.3741652 C70.7096647,14.4957842 70.1048697,15.1624368 69.023656,16.3771259 L67.3590433,18.9251201 C66.8269949,19.8650402 66.3434442,20.8665206 65.911244,21.9280597 C65.6373745,22.6112285 65.3963124,23.4610604 65.1866311,24.476054 C64.9783762,25.492549 64.8742488,26.364903 64.8742488,27.0931158 C64.8742488,28.777765 65.2265704,30.0975569 65.93264,31.0509902 C66.4661148,31.7807046 67.1137019,32.1440602 67.8782541,32.1440602 C69.016524,32.1440602 70.1191337,31.6380649 71.1860834,30.6260743 C72.8863561,28.9924751 73.9518794,27.3303481 74.385506,25.6366901 C74.1686927,25.6051593 73.9747018,25.591646 73.8006806,25.591646 L73.4982831,25.591646 C73.2386777,26.3769147 72.9006202,27.08711 72.482684,27.7207302 C72.0647478,28.3558519 71.6639285,28.8678531 71.2830788,29.2612382 C70.9008027,29.6531218 70.4429273,29.992454 69.9108788,30.2807362 C69.6655375,30.4158685 69.384536,30.4834346 69.0678745,30.4834346 C68.5486637,30.4834346 68.1378595,30.2717274 67.835462,29.8483129 C67.3733073,29.2282059 67.1436564,28.403899 67.1436564,27.3753922 C67.1436564,25.9700164 67.3818658,24.5781539 67.8568581,23.2028076 C69.2404693,22.9145254 70.3716071,22.6292461 71.2502715,22.3469698 L71.2502715,22.3469698 Z M44.6863628,15.6669307 C45.0030243,15.3366073 45.2768937,15.1699441 45.5079711,15.1699441 C45.723358,15.1699441 45.8888208,15.2465191 46.0043594,15.3981676 C46.1769542,15.6414057 46.2639648,15.9897467 46.2639648,16.444692 C46.2639648,17.2029343 46.1198981,18.1818926 45.8317646,19.3800655 C45.4138285,21.0632131 44.7947694,22.9445548 43.9731611,25.022589 C43.5252705,26.1607031 42.8192008,27.6696802 41.8549522,29.5495204 C41.3214774,30.5825317 41.0404759,31.1290667 41.0119478,31.1891255 C40.9534653,31.3557886 40.9249372,31.5449738 40.9249372,31.7581825 C40.9249372,31.8798016 40.9677293,31.9849044 41.0547399,32.0764941 C41.1403241,32.1680838 41.2487308,32.2131279 41.3785335,32.2131279 C41.9405364,32.2131279 42.8334649,31.8257486 44.0587453,31.0509902 C46.7689116,29.3077838 48.8215059,27.7387478 50.2193812,26.3423809 C51.1850562,25.3724314 52.2662699,23.8709616 53.4615959,21.8379715 C53.246209,22.7328475 52.7697903,23.9820704 52.0351926,25.591646 C51.3005949,27.1997202 50.2778637,29.0270089 48.9655727,31.0750137 C48.7359217,31.3617945 48.6018398,31.5449738 48.5661798,31.6215488 C48.5305197,31.6966222 48.5119764,31.8482707 48.5119764,32.0764941 C48.7715818,32.1981132 48.9513086,32.2581719 49.0525833,32.2581719 C49.1239034,32.2581719 49.5717941,32.1125294 50.3934024,31.8272501 C52.9866036,30.5540037 54.8238111,29.5465175 55.9050248,28.8032899 C57.6908817,27.5765891 59.1686355,26.2282692 60.3354334,24.7583303 C62.0071781,22.6532696 63.1925193,20.720878 63.8914569,18.9626569 C64.5903945,17.2059372 64.9398633,15.6068719 64.9398633,14.1669623 C64.9398633,13.7135184 64.8243246,13.3651774 64.5946737,13.1219393 C64.3635964,12.8802027 64.0611989,12.7585836 63.6860548,12.7585836 C63.3551292,12.7585836 63.0769806,12.9973173 62.8544617,13.4732833 C62.6305164,13.9537536 62.5192569,14.4507401 62.5192569,14.9657443 C62.547785,15.9522099 62.562049,16.4987449 62.562049,16.6038478 C62.562049,19.2434317 61.7119126,21.6172555 60.0116399,23.7253191 C57.7636283,26.4850206 55.2845393,28.4879813 52.5757994,29.7326997 C53.858136,27.3618789 54.8922784,24.8874567 55.6782266,22.3049286 C56.4627485,19.7239021 56.8564358,17.7404604 56.8564358,16.3591082 C56.8564358,14.9161957 56.6039624,13.8906919 56.0990156,13.2825966 C55.7823541,12.88771 55.3287578,12.6910175 54.7382269,12.6910175 C54.462931,12.6910175 54.1320055,12.8081321 53.7425974,13.04086 C53.3546157,13.2765907 52.8282728,13.8756772 52.1649953,14.8441252 C51.690003,15.5227895 51.1850562,16.4837302 50.6515814,17.7224428 L51.2791988,18.0602735 L52.4032046,16.1413951 C52.6913381,15.7344968 52.9652076,15.4402087 53.224813,15.2600323 C53.4116718,15.1399148 53.6056626,15.079856 53.8082119,15.079856 C53.9665427,15.079856 54.0963454,15.1549294 54.19762,15.3065779 C54.3559508,15.5348013 54.434403,15.8456056 54.434403,16.2404921 C54.434403,17.0738079 54.2974682,17.9386545 54.0235988,18.8335305 C53.865268,19.3034905 53.437347,20.1728415 52.7384094,21.4385806 C52.0394718,22.7058211 51.4303976,23.6577529 50.9111868,24.2928747 C49.8442371,25.6291828 48.5405045,26.8814086 46.9985625,28.0480506 C45.9187752,28.8678531 44.9816282,29.4294028 44.188548,29.7326997 C45.8745567,26.2282692 47.0342226,23.4715707 47.6689721,21.4626041 C48.3037215,19.452136 48.6203831,17.7254457 48.6203831,16.2840347 C48.6203831,14.9357149 48.429245,14.0033021 48.046969,13.4867965 C47.6646929,12.9717924 47.1939798,12.7135396 46.6319769,12.7135396 C45.8674247,12.7135396 45.1042989,13.2210363 44.3397468,14.2435373 C43.576621,15.2630353 43.0074861,16.4597067 42.632342,17.835053 L43.1943449,18.0827956 C43.8718865,16.8035433 44.3682748,15.9987555 44.6863628,15.6669307 L44.6863628,15.6669307 Z M29.8032707,22.6787946 C30.9415405,19.5842654 32.2951972,17.1578902 33.8670937,15.3981676 C34.7885502,14.3516431 35.6743467,13.8276301 36.5259095,13.8276301 C36.9138912,13.8276301 37.2605072,14.0138124 37.5629047,14.3861769 C37.8653022,14.75704 38.0165009,15.2615338 38.0165009,15.898157 C38.0165009,17.6894105 37.3974419,20.1383077 36.1578974,23.2478517 C34.9183529,26.3558942 33.6788085,28.5495415 32.439264,29.8242894 C31.7474584,30.5224729 31.0627848,30.8708139 30.3866696,30.8708139 C29.694864,30.8708139 29.1941965,30.7041507 28.8832405,30.3693229 C28.573711,30.0359966 28.4196595,29.5209925 28.4196595,28.822809 C28.4196595,27.2447643 28.8803877,25.1967595 29.8032707,22.6787946 L29.8032707,22.6787946 Z M38.6227223,14.0903874 C37.9309167,13.2030187 37.0793539,12.7585836 36.0708868,12.7585836 C34.9754091,12.7585836 33.9027538,13.114432 32.8500681,13.8276301 C31.7988089,14.5408283 30.89019,15.4206896 30.1270642,16.4672141 C29.8674588,16.8320712 29.6363815,17.1428755 29.4352586,17.3996268 C28.5409037,18.5362394 27.8134381,19.9686416 27.2514352,21.689326 C26.6894323,23.4115119 26.4084308,24.9325008 26.4084308,26.2522927 C26.4084308,28.2087079 26.7693108,29.6456145 27.4896445,30.5630125 C28.2099782,31.4804106 29.1542572,31.9398604 30.3210551,31.9398604 C32.4977465,31.9398604 34.5974122,30.5750243 36.6229049,27.8438507 C38.6469712,25.1141786 39.6597175,21.98962 39.6597175,18.4701748 C39.6597175,16.4371847 39.3131015,14.977756 38.6227223,14.0903874 L38.6227223,14.0903874 Z M15.4294046,30.2341907 C14.7960815,30.5224729 14.1356568,30.6651125 13.4452776,30.6651125 C12.6835782,30.6651125 12.0859152,30.490942 11.6551414,30.142601 C11.3826984,29.9143776 11.2457637,29.5435145 11.2457637,29.0270089 C11.2457637,28.7852723 11.2671597,28.5570489 11.3113782,28.3453416 C11.3684343,27.9354404 11.469709,27.5105244 11.6137757,27.0705938 L13.4096175,21.6322702 C14.0301029,19.902577 14.8160511,17.4762018 15.7674621,14.3516431 C16.226764,14.3050975 16.6204513,14.2825755 16.9499505,14.2825755 C18.0254586,14.2825755 18.9084022,14.4417313 19.5959286,14.7615444 C20.0124384,14.9582369 20.4417858,15.2990705 20.8868236,15.7855468 C21.2020587,16.1188731 21.4103136,16.4987449 21.5101619,16.9221594 C21.7112847,17.7119325 21.8111329,18.4926968 21.8111329,19.2659538 C21.8111329,20.4806428 21.5272787,21.8935259 20.9595702,23.5091074 C20.3918617,25.1246889 19.4390243,26.7072381 18.1024844,28.253752 C16.8087366,29.3453205 15.9172345,30.0059672 15.4294046,30.2341907 L15.4294046,30.2341907 Z M0,42.9306193 L0.0228224529,43.0897751 L0.821608304,43.0897751 C1.18248834,43.0897751 1.61468854,43.1047898 2.11963531,43.1348192 C2.52330745,43.0432295 3.07817833,42.9981854 3.78282157,42.9981854 L7.76106039,43.1573412 L8.28027119,43.1348192 C8.41007389,43.1198045 8.57553667,43.1122971 8.77665954,43.1122971 C9.07905704,43.1122971 9.51125724,43.1258104 10.0732601,43.1573412 C10.1460067,43.067253 10.1816668,42.9831707 10.1816668,42.9065958 L10.0732601,42.5432401 C9.95772148,42.4966945 9.86500526,42.4441431 9.79225869,42.3840843 C9.39001296,42.3075093 8.91787347,42.2549579 8.37726661,42.2249285 C7.83808617,42.1933976 7.37307869,42.1183241 6.98367059,41.9967051 L6.74688764,41.7925052 L6.72406518,41.5883053 C6.72406518,41.3750966 6.80394377,41.0763041 6.96227454,40.6889249 C7.1206053,40.3015457 7.33028659,39.7069636 7.58989199,38.9036773 C8.9307111,34.866225 9.89068052,32.2356499 10.4669475,31.0074476 C11.056052,31.2491842 11.6037909,31.4308621 12.1073113,31.5509797 C12.6094052,31.6741002 13.0630015,31.7356605 13.4666736,31.7356605 C14.0129861,31.7356605 15.1412711,31.4173489 16.8529551,30.7792242 C17.6160808,30.5059567 18.4861868,29.9639261 19.4646995,29.1531324 C20.4417858,28.3408372 21.3118918,27.3363539 22.0750176,26.138181 C22.8367169,24.9400081 23.4058518,23.7643573 23.7795695,22.6112285 C24.1532872,21.4580997 24.340146,20.3740385 24.340146,19.3575434 C24.340146,18.0077221 24.074835,16.8200595 23.544213,15.7960571 C23.0121645,14.7720546 22.164881,13.9567565 21.0023623,13.3501627 C20.1693427,12.9252468 19.3734097,12.7135396 18.6117103,12.7135396 L18.5047301,12.7135396 C18.0454282,12.6835102 17.7002386,12.666994 17.4705877,12.666994 C17.2552008,12.666994 16.831559,12.6910175 16.1996623,12.7360616 C16.300937,12.3877206 16.5391463,11.7045518 16.9142904,10.6895583 C17.1011492,10.1745541 17.2395104,9.74213082 17.3250946,9.39378982 C17.4834253,8.77218132 17.5775679,8.42384033 17.606096,8.34726537 L17.6931066,8.03045524 C17.6931066,7.86229063 17.5704359,7.64007309 17.3236681,7.36530412 C16.9185696,7.33527473 16.6147457,7.32026003 16.4121964,7.32026003 C16.2239112,7.32026003 16.0441844,7.33527473 15.8701632,7.36530412 C15.5948673,7.71514658 15.349526,8.34426243 15.1327127,9.25415313 C14.9872195,9.93732189 14.5707098,11.2270844 13.8789042,13.1219393 C11.2414845,13.7135184 9.56973978,14.2450387 8.86367014,14.7149988 C8.63259281,14.8666472 8.51705414,15.0498266 8.51705414,15.2615338 L8.56127264,15.5122793 C8.80518761,15.6173821 8.98491442,15.6714351 9.10045309,15.6714351 C9.23025579,15.6714351 9.56260776,15.5573234 10.0960826,15.3290999 C10.3842161,15.2390118 10.606735,15.1699441 10.7650657,15.1249001 C11.5296179,14.8831634 12.4225464,14.6699547 13.446704,14.4882769 C13.2013626,15.428197 12.9274932,16.3696185 12.6250957,17.3095386 C11.6166285,20.4190826 11.0760217,22.0872155 11.0047015,22.3154389 L8.99347284,28.2087079 C8.93641671,28.3588549 8.86367014,28.6096003 8.77808594,28.9594428 C8.74813147,29.1261059 8.62974,29.4909631 8.42148512,30.0510113 C8.21180383,30.6110596 8.02066579,31.1891255 7.84807099,31.7807046 C7.57420155,32.7206246 7.28606809,33.5779639 6.98367059,34.3512209 L4.84406563,40.2685133 C4.61441469,40.8736057 4.41899744,41.2759996 4.26066667,41.4741936 C4.17365607,41.5792965 4.02958934,41.6783935 3.82846647,41.7699831 C3.6259172,41.8000125 3.4105303,41.8450566 3.17945297,41.9066169 C2.99116773,41.9351448 2.6745062,41.974183 2.22804196,42.0192271 C1.36364156,42.12433 0.664703941,42.2474505 0.129802701,42.3840843 C0.0442185025,42.6108062 0,42.7939855 0,42.9306193 L0,42.9306193 Z" id="Fill-1" fill="#000000"></path>
                <path d="M460.222842,23.8314421 L465.545894,32.2909653 L462.2137,32.2909653 L456.999765,23.8782731 L450.126738,23.8782731 L450.126738,32.2909653 L447.685399,32.2909653 L447.685399,12.4931856 L458.609011,12.4931856 C462.293691,12.4931856 464.391035,14.8365651 464.391035,18.2261138 C464.391035,21.2249607 463.289673,22.9026414 460.222842,23.8314421 L460.222842,23.8314421 Z M458.609011,15.2403264 L450.126738,15.2403264 L450.126738,21.1385355 L458.609011,21.1385355 C460.306909,20.9652692 461.811538,20.1631533 461.811538,18.0667387 C461.811538,16.4743188 460.532701,15.3593586 458.609011,15.2403264 L458.609011,15.2403264 Z" id="Fill-1" fill="#000000"></path>
                <polygon id="Fill-3" fill="#000000" points="425.825609 32.284943 425.825609 12.4869138 439.023444 12.4869138 439.023444 15.2544339 428.621897 15.2544339 428.621897 20.9603282 437.972862 20.9603282 437.972862 23.3988669 428.621897 23.3988669 428.621897 29.5548544 439.805352 29.5548544 439.805352 32.284943"></polygon>
                <polygon id="Fill-5" fill="#000000" points="410.135613 15.404709 410.135613 32.3097809 407.263665 32.3097809 407.263665 15.404709 399.353727 15.404709 399.353727 12.5120844 418.143629 12.5120844 418.143629 15.404709"></polygon>
                <path d="M388.602054,23.8314421 L393.925106,32.2909653 L390.592912,32.2909653 L385.378977,23.8782731 L378.50595,23.8782731 L378.50595,32.2909653 L376.064611,32.2909653 L376.064611,12.4931856 L386.988223,12.4931856 C390.672903,12.4931856 392.770247,14.8365651 392.770247,18.2261138 C392.770247,21.2249607 391.668885,22.9026414 388.602054,23.8314421 M386.988223,15.2403264 L378.50595,15.2403264 L378.50595,21.1385355 L386.988223,21.1385355 C388.686121,20.9652692 390.19075,20.1631533 390.19075,18.0667387 C390.19075,16.4743188 388.911913,15.3593586 386.988223,15.2403264" id="Fill-7" fill="#000000"></path>
                <path d="M357.98623,12.067398 C364.729845,12.067398 368.985162,16.7655526 368.985162,22.3446788 C368.985162,27.7472947 364.849746,32.6192979 357.927553,32.6192979 C351.242615,32.6192979 347.015405,27.7772399 347.015405,22.3446788 C347.015405,16.7952483 351.362177,12.067398 357.98623,12.067398 M357.997694,29.8756508 C362.584439,29.8756508 366.196261,26.74413 366.196261,22.36955 C366.196261,17.9642762 362.584439,14.8257682 357.997694,14.8257682 C353.444491,14.8257682 349.799381,17.939405 349.799381,22.3446788 C349.799381,26.7192588 353.444491,29.8756508 357.997694,29.8756508" id="Fill-9" fill="#000000"></path>
                <path d="M335.966314,23.872126 L327.40405,23.872126 L327.40405,32.2848182 L324.928066,32.2848182 L324.928066,12.4870386 L335.966314,12.4870386 C339.542641,12.4870386 341.633956,14.5835363 341.633956,18.1397801 C341.633956,21.6429543 339.515299,23.872126 335.966314,23.872126 M335.966314,15.2342625 L327.375433,15.2342625 L327.375433,20.9529667 L335.966314,20.9529667 C337.612328,20.9591221 339.162302,20.0506175 339.162302,18.1397801 C339.162302,16.1759563 337.653003,15.3797463 335.966314,15.2342625" id="Fill-12" fill="#000000"></path>
                <mask id="mask-2" fill="white">
                    <use xlink:href="#path-1"></use>
                </mask>
                <g id="Clip-15"></g>
                <polygon id="Fill-14" fill="#000000" mask="url(#mask-2)" points="303.632526 24.581786 313.824925 24.581786 313.824925 22.1577209 303.632526 22.1577209"></polygon>
                <path d="M293.069384,32.3324477 L290.170432,25.8835794 L281.094681,25.8835794 L278.087376,32.3324477 L275.029801,32.3324477 L284.226473,12.5285127 L285.645082,12.4413388 L287.063775,12.5285127 L296.128827,32.3324477 L293.069384,32.3324477 Z M285.646186,16.0641276 L282.246823,23.4012042 L289.045293,23.4012042 L285.646186,16.0641276 Z" id="Fill-16" fill="#000000" mask="url(#mask-2)"></path>
                <polygon id="Fill-17" fill="#000000" mask="url(#mask-2)" points="257.31723 24.581786 267.509628 24.581786 267.509628 22.1577209 257.31723 22.1577209"></polygon>
                <polygon id="Fill-18" fill="#000000" mask="url(#mask-2)" points="243.679538 15.2509902 243.679538 32.2889856 240.878579 32.2889856 240.878579 15.2509902 232.884235 15.2509902 232.884235 12.484801 251.673882 12.484801 251.673882 15.2509902"></polygon>
                <polygon id="Fill-19" fill="#000000" mask="url(#mask-2)" points="211.502353 32.2828052 211.502353 12.484776 224.700188 12.484776 224.700188 15.2522961 214.298641 15.2522961 214.298641 20.9581904 223.649605 20.9581904 223.649605 23.3967291 214.298641 23.3967291 214.298641 29.5527166 225.48218 29.5527166 225.48218 32.2828052"></polygon>
                <path d="M203.65206,32.2850844 L203.65206,12.4870552 L200.792679,12.4870552 L200.792679,27.6142131 L188.763375,12.6566616 L188.760912,12.6553307 C188.730852,12.6186478 188.686356,12.5807172 188.630396,12.5488588 C188.559406,12.5087655 188.490369,12.4900497 188.437127,12.489717 L188.432202,12.4870552 L185.879963,12.4870552 L185.879963,32.2850844 L188.655531,32.2850844 L188.655531,17.2111624 L200.690865,32.0920209 L200.694431,32.0938509 C200.727463,32.1350256 200.782319,32.1799434 200.8528,32.2179572 C200.9333,32.2612946 201.010064,32.2818403 201.06543,32.282173 L201.070949,32.2850844 L203.65206,32.2850844 Z" id="Fill-20" fill="#000000" mask="url(#mask-2)"></path>
            </g>
        </g>
    </g>
</svg>